@startuml
  package main {
    class Main {
        {static} + main()
        {static} - processGrades()
    }
  }

  package sdp {
    interface UI {
        - in : InputStream
        - out : OutputStream
        + {static} UI(InputStream, OutputStream)
    }

    class ReportPrinter {
        - summary : Summary
        - processor : Processor
        - ui : UI
        + {static} ReportPrinter(UI)
        + printGradeReport()
    }

    class Summary {
        - courses : int
        - total : double
        + addGrade()
        + format()
    }

    class Processor {
        - scanner : Scanner
        - gradeFactory : GradeFactory
        + Processor(Scanner)
        + hasNext()
        + getNext()
        - getGradeForLetter(String)
    }

    class Grade {
        + {static} forLetter(String)
        + getPoints()
        + countsForCredit()
    }
  }


   class java.lang.System {
    + {static} out : PrintStream
    + {static} in : InputStream
   }

Main -> java.lang.System
Main --> UI : <<creates>>
Main --> ReportPrinter : <<creates>>
ReportPrinter --> Summary : <<creates>>
ReportPrinter --> Processor : <<creates>>
ReportPrinter --> Grade
UI <- ReportPrinter

Summary --> Grade
Processor --> Grade : <<creates>>

@enduml
